# xmcd
#
# Track frame offsets:
# 150
# 14781
# 28997
# 40467
# 57295
# 73617
# 90105
# 103606
# 115823
# 127535
#
# Disc length: 1886 seconds
#
#
# Revision: 0
# Processed by: cddbd v1.5.2PL0 Copyright (c) Steve Scherf et al.
# Submitted via: FreeRIP 2.951 
#
DISCID=7e075c0a
DTITLE=Shadow Styles - Where The Highway Meets The Sky
DYEAR=1900
DGENRE=Country
TTITLE0=That's What I Get For Thinking
TTITLE1=Honky Tonk Time
TTITLE2=Wake Up Heart
TTITLE3=Something's Happenin' Here
TTITLE4=Just Us
TTITLE5=Where The Highway Meets The Sky
TTITLE6=I'm One Of Them
TTITLE7=I Take The Fifth
TTITLE8=Honky Tonk Fever
TTITLE9=Only People In The World
EXTD=
EXTT0=
EXTT1=
EXTT2=
EXTT3=
EXTT4=
EXTT5=
EXTT6=
EXTT7=
EXTT8=
EXTT9=
PLAYORDER=
